HIERARCHY
ROOT Pelvis
{
	OFFSET 0.000000 0.000000 0.000000
	CHANNELS 6 Xposition Yposition Zposition Xrotation Yrotation Zrotation
	JOINT LeftUpLeg_virtual
	{
		OFFSET 0.000000 0.000000 0.000000
		CHANNELS 3 Xrotation Yrotation Zrotation
		JOINT LeftUpLeg
		{
			OFFSET 18.735201 -5.666702 -4.541200
			CHANNELS 3 Xrotation Yrotation Zrotation
			JOINT LeftLeg
			{
				OFFSET -0.021200 -31.938179 0.493100
				CHANNELS 3 Xrotation Yrotation Zrotation
				JOINT LeftFoot
				{
					OFFSET 0.021200 -31.938179 -4.336299
					CHANNELS 3 Xrotation Yrotation Zrotation
					JOINT LeftToeBase
					{
						OFFSET 0.943001 -26.722000 15.023500
						CHANNELS 3 Xrotation Yrotation Zrotation
						End Site
						{
							OFFSET 0 0 0
						}
					}
				}
			}
		}
	}
	JOINT RightUpLeg_virtual
	{
		OFFSET 0.000000 0.000000 0.000000
		CHANNELS 3 Xrotation Yrotation Zrotation
		JOINT RightUpLeg
		{
			OFFSET -18.735201 -5.666702 -4.541200
			CHANNELS 3 Xrotation Yrotation Zrotation
			JOINT RightLeg
			{
				OFFSET 0.018946 -31.938133 0.493100
				CHANNELS 3 Xrotation Yrotation Zrotation
				JOINT RightFoot
				{
					OFFSET -0.018946 -31.938126 -4.336299
					CHANNELS 3 Xrotation Yrotation Zrotation
					JOINT RightToeBase
					{
						OFFSET -0.943001 -26.722004 15.023500
						CHANNELS 3 Xrotation Yrotation Zrotation
						End Site
						{
							OFFSET 0 0 0
						}
					}
				}
			}
		}
	}
	JOINT Hips_virtual
	{
		OFFSET 0.000000 0.000000 0.000000
		CHANNELS 3 Xrotation Yrotation Zrotation
		JOINT Hips
		{
			OFFSET -0.000000 -0.000000 -0.000000
			CHANNELS 3 Xrotation Yrotation Zrotation
			JOINT Spine
			{
				OFFSET 0.000000 10.199997 -0.299500
				CHANNELS 3 Xrotation Yrotation Zrotation
				JOINT Spine1
				{
					OFFSET 0.000000 11.900002 -1.516600
					CHANNELS 3 Xrotation Yrotation Zrotation
					JOINT Spine2
					{
						OFFSET 0.000000 13.600006 -2.842500
						CHANNELS 3 Xrotation Yrotation Zrotation
						JOINT Neck_virtual
						{
							OFFSET 0.000000 0.000000 0.000000
							CHANNELS 3 Xrotation Yrotation Zrotation
							JOINT Neck
							{
								OFFSET 0.000000 9.624100 -2.890100
								CHANNELS 3 Xrotation Yrotation Zrotation
								JOINT Head
								{
									OFFSET 0.000000 14.068802 -1.351900
									CHANNELS 3 Xrotation Yrotation Zrotation
									End Site
									{
										OFFSET 0 0 0
									}
								}
							}
						}
						JOINT LeftShoulder_virtual
						{
							OFFSET 0.000000 0.000000 0.000000
							CHANNELS 3 Xrotation Yrotation Zrotation
							JOINT LeftShoulder
							{
								OFFSET 15.263000 10.923401 -0.547700
								CHANNELS 3 Xrotation Yrotation Zrotation
								JOINT LeftArm
								{
									OFFSET 25.438599 -2.830597 -13.032500
									CHANNELS 3 Xrotation Yrotation Zrotation
									JOINT LeftForeArm
									{
										OFFSET 29.960503 0.000000 0.000000
										CHANNELS 3 Xrotation Yrotation Zrotation
										JOINT LeftHand
										{
											OFFSET 27.849251 0.000000 0.000000
											CHANNELS 3 Xrotation Yrotation Zrotation
											End Site
											{
												OFFSET 0 0 0
											}
										}
									}
								}
							}
						}
						JOINT RightShoulder_virtual
						{
							OFFSET 0.000000 0.000000 0.000000
							CHANNELS 3 Xrotation Yrotation Zrotation
							JOINT RightShoulder
							{
								OFFSET -15.263000 10.923401 -0.547700
								CHANNELS 3 Xrotation Yrotation Zrotation
								JOINT RightArm
								{
									OFFSET -25.438599 -2.830597 -13.032500
									CHANNELS 3 Xrotation Yrotation Zrotation
									JOINT RightForeArm
									{
										OFFSET -29.960503 0.000000 0.000000
										CHANNELS 3 Xrotation Yrotation Zrotation
										JOINT RightHand
										{
											OFFSET -27.849251 0.000000 0.000000
											CHANNELS 3 Xrotation Yrotation Zrotation
											End Site
											{
												OFFSET 0 0 0
											}
										}
									}
								}
							}
						}
					}
				}
			}
		}
	}
}
MOTION
Frames: 7
Frame Time: 0.03333333
-3.546972 84.365776 7.382328 0.000000 0.000000 0.000000 23.663192 -20.412558 -24.658316 -80.056668 -31.872033 24.119307 68.289632 3.790583 -4.297425 -10.327161 -7.821741 -11.045884 0.000000 0.000000 0.000000 22.229829 -19.299801 -24.777942 -22.361322 -29.144301 16.308888 24.054634 -9.715854 -1.048155 -1.911175 -1.936627 12.494914 0.000000 0.000000 0.000000 23.944758 -19.193095 -25.068459 -0.784947 0.091922 0.015492 14.455306 7.633751 -14.871239 5.761514 1.033797 -7.520013 0.000000 0.000000 0.000000 1.349415 4.110120 -9.716892 1.647032 6.542202 2.381043 0.000000 0.000000 0.000000 4.237577 3.647125 -9.715023 -0.129268 -18.508158 10.597463 -39.047884 -34.559514 -90.321103 82.379417 -74.426741 86.374839 0.000000 0.000000 0.000000 -0.602101 4.926058 -9.530015 7.791852 19.803681 -11.155191 -23.004285 52.394169 39.664479 85.677060 55.732540 -92.081660 0.000000 0.000000 0.000000 
-3.344109 84.503899 7.344868 0.000000 0.000000 0.000000 23.456768 -20.555062 -23.728511 -79.373212 -30.430214 24.735880 68.194091 3.487124 -4.585978 -10.559164 -7.913047 -11.334678 0.000000 0.000000 0.000000 22.153498 -19.356357 -23.768444 -22.881374 -28.547764 15.710058 24.221992 -9.839191 -1.399466 -1.936639 -1.961517 12.034475 0.000000 0.000000 0.000000 23.819607 -19.163470 -24.061477 -0.795614 0.119284 0.009255 14.894725 7.925170 -14.935943 6.420636 1.142363 -7.240892 0.000000 0.000000 0.000000 1.709871 4.212541 -9.362869 1.668812 6.415139 2.440183 0.000000 0.000000 0.000000 4.604464 3.698584 -9.428765 -0.562670 -18.507656 10.502269 -39.276221 -35.343155 -89.305345 81.763723 -74.912750 85.966748 0.000000 0.000000 0.000000 0.136024 4.971255 -9.268393 7.282203 19.176555 -12.304637 -23.540928 52.910136 41.608843 85.303824 56.454976 -91.569942 0.000000 0.000000 0.000000 
-3.150471 84.658569 7.346821 0.000000 0.000000 0.000000 23.121256 -20.648613 -22.951317 -78.663200 -29.121430 25.433654 68.281784 3.135714 -4.657409 -10.475155 -7.855081 -11.657991 0.000000 0.000000 0.000000 21.955855 -19.455492 -22.992879 -23.250997 -27.986359 15.332322 24.533387 -10.068281 -1.703564 -2.183357 -2.040585 11.595444 0.000000 0.000000 0.000000 23.548418 -19.123365 -23.248632 -0.810145 0.148030 -0.007007 15.335836 8.161933 -15.011076 7.001827 1.230149 -6.864049 0.000000 0.000000 0.000000 2.003639 4.293255 -8.875000 1.745408 6.262407 2.518144 0.000000 0.000000 0.000000 4.903347 3.752322 -8.986612 -1.000866 -18.417656 9.925774 -39.264165 -36.307404 -87.914274 78.332202 -75.482879 82.625618 0.000000 0.000000 0.000000 0.673745 4.991404 -8.868444 6.926625 18.737695 -13.438676 -24.049711 52.909927 43.561560 85.279536 57.294608 -91.321070 0.000000 0.000000 0.000000 
-3.008439 84.802971 7.464417 0.000000 0.000000 0.000000 22.723587 -20.719230 -22.308354 -77.913518 -27.887304 26.292156 68.552696 2.779965 -4.545635 -10.401208 -7.609194 -11.986279 0.000000 0.000000 0.000000 21.665999 -19.563146 -22.426692 -23.571121 -27.405273 15.172536 25.109071 -10.355033 -1.990355 -2.578384 -2.123826 11.198298 0.000000 0.000000 0.000000 23.156687 -19.180879 -22.585381 -0.820368 0.159795 -0.032097 15.742797 8.286654 -15.049787 7.481402 1.292093 -6.474010 0.000000 0.000000 0.000000 2.216592 4.365372 -8.334338 1.861038 6.090881 2.621066 0.000000 0.000000 0.000000 5.178741 3.784878 -8.480046 -1.388527 -18.235263 9.064302 -39.172077 -37.609679 -86.080314 72.208582 -75.989434 76.451428 0.000000 0.000000 0.000000 1.023886 4.996461 -8.411175 6.764626 18.570941 -14.323415 -24.172309 52.524606 44.864719 85.604544 58.319201 -91.288081 0.000000 0.000000 0.000000 
-2.916653 84.934784 7.613689 0.000000 0.000000 0.000000 22.343091 -20.834321 -21.695749 -77.107085 -26.644056 27.262649 68.817523 2.417129 -4.294668 -10.707678 -7.200299 -12.431760 0.000000 0.000000 0.000000 21.321795 -19.730535 -21.924952 -23.995156 -26.702619 15.104004 25.812342 -10.627848 -2.325407 -3.046037 -2.128967 10.921079 0.000000 0.000000 0.000000 22.712891 -19.404518 -21.953818 -0.830415 0.150020 -0.049881 16.114694 8.297841 -15.006984 7.891011 1.359169 -6.197209 0.000000 0.000000 0.000000 2.366010 4.425956 -7.857004 1.990612 5.919168 2.751128 0.000000 0.000000 0.000000 5.480368 3.788938 -8.037893 -1.673968 -17.952848 8.197029 -39.027520 -39.175066 -83.800083 65.773916 -76.415542 69.782643 0.000000 0.000000 0.000000 1.229751 5.002257 -8.008798 6.789960 18.612264 -14.755111 -23.921293 52.073615 45.248029 86.022633 59.490026 -91.184569 0.000000 0.000000 0.000000 
-2.890866 85.053131 7.765156 0.000000 0.000000 0.000000 22.039719 -21.078015 -20.984248 -76.186525 -25.241604 28.278921 68.847637 2.043829 -3.957999 -11.434263 -6.656515 -13.099850 0.000000 0.000000 0.000000 20.984380 -19.986501 -21.317770 -24.709961 -25.881738 14.900012 26.587372 -10.828996 -2.699701 -3.626021 -2.027421 10.841639 0.000000 0.000000 0.000000 22.309780 -19.753723 -21.207396 -0.839066 0.128900 -0.057234 16.470632 8.187484 -14.850037 8.268057 1.440562 -6.133551 0.000000 0.000000 0.000000 2.468217 4.464326 -7.560289 2.111295 5.752979 2.907255 0.000000 0.000000 0.000000 5.839472 3.752156 -7.770560 -1.801017 -17.571896 7.656855 -38.824472 -40.672547 -81.247354 63.031656 -77.165756 66.673486 0.000000 0.000000 0.000000 1.369824 5.003850 -7.773161 6.975860 18.725828 -14.755973 -23.431934 51.925765 44.620379 85.986228 60.778753 -90.481469 0.000000 0.000000 0.000000 
-2.950500 85.171410 7.908367 0.000000 0.000000 0.000000 21.870011 -21.485420 -20.113061 -75.164128 -23.517738 29.320742 68.469218 1.710959 -3.633390 -12.275249 -5.969500 -13.992096 0.000000 0.000000 0.000000 20.699372 -20.335893 -20.489767 -25.773196 -25.063965 14.459830 27.464151 -10.951962 -3.025327 -4.166459 -1.819303 10.982213 0.000000 0.000000 0.000000 22.007119 -20.180364 -20.276771 -0.845889 0.108152 -0.057810 16.802508 7.950270 -14.550446 8.633449 1.529554 -6.338728 0.000000 0.000000 0.000000 2.533829 4.463218 -7.518170 2.197629 5.612144 3.071120 0.000000 0.000000 0.000000 6.259491 3.656900 -7.739901 -1.751217 -17.079240 7.672013 -38.436972 -41.625526 -78.757211 66.328117 -78.497097 69.532576 0.000000 0.000000 0.000000 1.502810 4.973916 -7.769976 7.257950 18.695981 -14.397021 -22.938565 52.474380 43.254885 84.521310 62.042583 -88.258919 0.000000 0.000000 0.000000 
